<svg xmlns="http://www.w3.org/2000/svg" xml:space="preserve" viewBox="0 0 800 800">
    <g fill="currentColor">
        <path d="m39.943 597.52 49.615 50.82a13.885 13.885 0 0 0 9.962 4.194c3.502 0 7.012-1.315 9.722-3.957 5.497-5.367 5.598-14.177.24-19.679l-40.36-41.337 58.063-51.128c5.762-5.077 6.32-13.869 1.242-19.641-5.078-5.764-13.875-6.311-19.637-1.245l-69.158 60.901c-5.77 5.077-6.329 13.872-1.25 19.641.474.545 1.033.978 1.561 1.431zM690.767 648.575a13.85 13.85 0 0 0 9.721 3.959c3.61 0 7.222-1.4 9.954-4.194l49.235-50.429a14.41 14.41 0 0 0 2.307-2.239c4.845-5.965 3.943-14.726-2.02-19.575l-34.459-28.015c-5.964-4.842-14.722-3.939-19.566 2.018-4.854 5.965-3.945 14.726 2.019 19.575l22.517 18.313-39.94 40.911c-5.374 5.497-5.266 14.306.232 19.676zM621.817 499.635l51.681 42.021a13.856 13.856 0 0 0 8.773 3.117c4.038 0 8.044-1.754 10.801-5.135 4.853-5.965 3.944-14.726-2.02-19.575l-51.68-42.021c-5.971-4.842-14.714-3.944-19.574 2.018-4.844 5.964-3.944 14.725 2.019 19.575zM51.022 163.391c3.564 0 7.121-1.358 9.839-4.072l48.155-48.144 48.141 48.141c2.717 2.717 6.273 4.076 9.837 4.076s7.12-1.358 9.838-4.076c5.436-5.436 5.436-14.244 0-19.676l-56.867-56.856c-2.998-3.004-7.035-4.286-10.965-3.967-3.912-.315-7.95.966-10.947 3.963l-56.867 56.856c-5.436 5.436-5.436 14.244 0 19.68a13.86 13.86 0 0 0 9.836 4.075z" />
        <path d="M166.994 239.875c3.563 0 7.12-1.358 9.838-4.076 5.436-5.431 5.436-14.244 0-19.675l-56.867-56.859c-2.998-3.001-7.035-4.286-10.948-3.972-3.929-.314-7.959.97-10.964 3.972l-56.867 56.859c-5.436 5.431-5.436 14.24 0 19.675a13.86 13.86 0 0 0 9.837 4.076c3.564 0 7.121-1.358 9.839-4.076l48.147-48.144 48.148 48.144a13.86 13.86 0 0 0 9.837 4.076z" />
        <path d="M92.882 238.602v72.055c0 7.683 6.234 13.914 13.914 13.914 7.687 0 13.914-6.23 13.914-13.914v-72.055c0-7.683-6.228-13.914-13.914-13.914-7.68 0-13.914 6.231-13.914 13.914zM245.021 163.391a13.88 13.88 0 0 0 9.845-4.076l48.141-48.137 48.147 48.141a13.886 13.886 0 0 0 9.838 4.072c3.556 0 7.127-1.358 9.846-4.076 5.427-5.436 5.427-14.244-.008-19.68L313.961 82.78c-3.005-2.997-7.026-4.278-10.955-3.963-3.93-.319-7.951.963-10.964 3.967L235.19 139.64c-5.436 5.432-5.436 14.24 0 19.676a13.859 13.859 0 0 0 9.831 4.075z" />
        <path d="M245.021 239.875a13.88 13.88 0 0 0 9.845-4.076l48.141-48.144 48.147 48.144c.209.206.442.346.66.54L103.161 593.531c-4.394 6.308-2.841 14.981 3.464 19.369 6.305 4.395 14.978 2.837 19.365-3.466L396.683 220.58l260.214 398.122c2.671 4.085 7.12 6.301 11.662 6.301 2.609 0 5.249-.733 7.594-2.267 6.437-4.203 8.246-12.826 4.037-19.261l-236.763-362.25 53.574-53.571 48.148 48.144a13.853 13.853 0 0 0 9.829 4.076 13.88 13.88 0 0 0 9.846-4.076c5.435-5.431 5.435-14.244 0-19.675l-56.867-56.859c-2.997-3.001-7.026-4.286-10.947-3.972-3.93-.314-7.959.97-10.965 3.972l-58.171 58.167-19.18-29.342a13.921 13.921 0 0 0-11.444-6.301c-4.456.008-8.983 2.17-11.616 5.963l-17.718 25.457-53.956-53.944c-3.005-3.001-7.034-4.286-10.955-3.972-3.93-.314-7.951.97-10.964 3.972l-56.852 56.859c-5.436 5.431-5.436 14.244 0 19.675a13.857 13.857 0 0 0 9.832 4.077zM633.014 163.391c3.557 0 7.112-1.358 9.83-4.072L691 111.178l48.147 48.141a13.885 13.885 0 0 0 9.837 4.072c3.556 0 7.129-1.358 9.846-4.076 5.427-5.436 5.427-14.244-.008-19.68L701.954 82.78c-3.004-2.997-7.026-4.278-10.954-3.963-3.93-.315-7.952.966-10.965 3.963l-56.867 56.856c-5.435 5.436-5.435 14.244 0 19.68a13.881 13.881 0 0 0 9.846 4.075z" />
        <path d="M739.147 235.799a13.873 13.873 0 0 0 9.837 4.076 13.86 13.86 0 0 0 9.838-4.076c5.435-5.436 5.435-14.244 0-19.675l-56.868-56.859c-3.004-3.001-7.026-4.286-10.954-3.972-3.93-.314-7.952.97-10.965 3.972l-56.867 56.859c-5.435 5.431-5.435 14.24 0 19.675a13.878 13.878 0 0 0 9.846 4.076c3.557 0 7.112-1.358 9.83-4.076L691 187.656l48.147 48.143z" />
        <path d="M693.205 324.571c7.687 0 13.913-6.23 13.913-13.914v-72.055c0-7.683-6.227-13.914-13.913-13.914-7.68 0-13.914 6.23-13.914 13.914v72.055c0 7.683 6.234 13.914 13.914 13.914zM439.018 163.391c3.563 0 7.119-1.358 9.837-4.072l48.156-48.141 48.14 48.137a13.857 13.857 0 0 0 9.829 4.076 13.88 13.88 0 0 0 9.846-4.076c5.435-5.436 5.435-14.244 0-19.676l-56.867-56.856c-2.997-3.004-7.034-4.286-10.963-3.967-3.914-.315-7.952.966-10.949 3.963l-56.867 56.856c-5.435 5.436-5.435 14.244 0 19.68a13.856 13.856 0 0 0 9.838 4.076zM760.072 693.401H39.928c-7.68 0-13.914 6.233-13.914 13.915 0 7.683 6.234 13.915 13.914 13.915h720.145c7.688 0 13.914-6.232 13.914-13.915-.001-7.681-6.227-13.915-13.915-13.915zM407.376 348.571c0-7.683-6.234-13.914-13.914-13.914-.17 0-.326.043-.497.051-.17-.008-.325-.051-.497-.051-7.68 0-13.913 6.231-13.913 13.914 0 105.596-171.838 249.579-173.568 251.023-5.917 4.912-6.724 13.683-1.817 19.595a13.889 13.889 0 0 0 10.715 5.023c3.13 0 6.274-1.052 8.875-3.207 6.235-5.179 129.008-108.114 170.206-210.854 41.199 102.739 163.972 205.675 170.207 210.854a13.866 13.866 0 0 0 8.875 3.207 13.89 13.89 0 0 0 10.715-5.023c4.906-5.912 4.1-14.683-1.816-19.595-1.734-1.444-173.571-145.427-173.571-251.023z" />
    </g>
</svg>