<svg xmlns="http://www.w3.org/2000/svg" viewBox="0 0 32 32">
    <g>
        <path fill="currentColor" d="M20.86 16.038 19.112 14.8l.028-2.141a1 1 0 0 0-1.598-.814l-1.717 1.281-2.027-.688a1 1 0 0 0-1.269 1.268l.688 2.028-1.28 1.716a1 1 0 0 0 .802 1.598h.012l2.142-.027 1.235 1.748a1 1 0 0 0 1.771-.28l.636-2.045 2.045-.635a1 1 0 0 0 .28-1.772ZM14.21 5.03l1.41-1.41 12.77 12.77-1.41 1.41z" />
        <path d="m28.463 8.885-5.348-5.347a5.248 5.248 0 0 0-7.423 0l-.78.78h-.001l-.001.002L2.293 16.936a1 1 0 0 0 0 1.415l3.154 3.154a1.03 1.03 0 0 0 1.414 0 2.631 2.631 0 0 1 3.634 0 2.573 2.573 0 0 1 0 3.633 1 1 0 0 0 0 1.414l3.154 3.155a1 1 0 0 0 1.415 0l13.399-13.399a5.256 5.256 0 0 0 0-7.423Zm-14.107 18.7-1.818-1.818a4.57 4.57 0 0 0-6.307-6.306l-1.817-1.817L15.618 6.44l9.943 9.942ZM27.05 14.895l-.074.074-9.943-9.942.074-.074a3.326 3.326 0 0 1 4.595 0l5.348 5.347a3.253 3.253 0 0 1 0 4.595Z" />
        <path d="M20.86 16.038 19.112 14.8l.028-2.141a1 1 0 0 0-1.598-.814l-1.717 1.281-2.027-.688a1 1 0 0 0-1.269 1.268l.688 2.028-1.28 1.716a1 1 0 0 0 .802 1.598h.012l2.142-.027 1.235 1.748a1 1 0 0 0 1.771-.28l.636-2.045 2.045-.635a1 1 0 0 0 .28-1.772Zm-3.42.653a1 1 0 0 0-.66.658l-.19.611-.369-.522a1 1 0 0 0-.816-.423h-.013l-.641.008.383-.513a1.003 1.003 0 0 0 .146-.92l-.206-.606.606.205a.997.997 0 0 0 .92-.145l.513-.384-.008.641a1.001 1.001 0 0 0 .423.83l.523.37Z" />
    </g>
</svg>