<svg xmlns="http://www.w3.org/2000/svg" xml:space="preserve" viewBox="0 0 500 500">
    <g fill="currentColor">
        <path d="M210.726 302.271s5.5 5.5 12.633 5.5c5.586 0 8.766-2.75 8.766-6.102 0-4.813-4.813-6.789-11.431-6.789h-4.297l-3.18-7.305 8.078-9.711c2.922-3.524 5.329-5.758 5.329-5.758v-.172s-1.977.43-5.844.43h-14.695v-12.891h38.759v9.367l-12.461 14.352c9.11 1.977 14.867 9.195 14.867 17.79 0 10.485-7.391 20.969-22.774 20.969-13.751 0-20.969-8.078-20.969-8.078l7.219-11.602zM256.188 308.029h13.063v-25.61c0-2.32.086-4.727.086-4.727h-.172s-.773 1.719-2.406 3.266l-3.695 3.351-8.68-9.281 16.586-15.555h12.977v48.556h13.149v12.891h-40.908v-12.891z" />
        <path d="M341.321 186.768h-22.773v-15.941c0-15.069-12.259-27.328-27.328-27.328s-27.328 12.259-27.328 27.328v15.941h-27.783v-15.941c0-15.069-12.259-27.328-27.328-27.328-15.069 0-27.328 12.259-27.328 27.328v15.941H158.68a8.198 8.198 0 0 0-8.198 8.198v154.403a8.198 8.198 0 0 0 8.198 8.198h182.642a8.198 8.198 0 0 0 8.198-8.198V194.966a8.199 8.199 0 0 0-8.199-8.198zm-61.032-15.941c0-6.037 4.894-10.931 10.931-10.931 6.037 0 10.931 4.894 10.931 10.931v37.12c0 6.037-4.894 10.931-10.931 10.931-6.037 0-10.931-4.894-10.931-10.931v-37.12zm-82.44 0c0-6.037 4.894-10.931 10.931-10.931 6.037 0 10.931 4.894 10.931 10.931v37.12c0 6.037-4.894 10.931-10.931 10.931-6.037 0-10.931-4.894-10.931-10.931v-37.12zm135.274 170.344H166.878V242.79h166.245v98.381z" />
    </g>
</svg>