<svg xmlns="http://www.w3.org/2000/svg" xml:space="preserve" viewBox="0 0 32 32" fill="currentColor">
    <path d="M29.8 9.5c-.3-.4-.8-.6-1.2-.4L24.1 11l1.8-3.5c.2-.4.1-.9-.2-1.2-.3-.3-.8-.4-1.2-.2L21 7.9l1.8-4.6c.2-.4 0-.9-.4-1.2-.4-.3-.9-.2-1.3.1l-7 7c-1.8 1.8-2 4.5-.7 6.5L2.9 24.9c-.6.5-.9 1.3-.9 2.1s.3 1.6.9 2.1c.5.6 1.3.9 2.1.9s1.6-.3 2.2-.9l9.1-10.7c.9.6 1.8.8 2.8.8 1.3 0 2.6-.5 3.6-1.5l7-7c.3-.3.4-.8.1-1.2zM5.7 27.7c-.4.4-1 .4-1.4 0-.2-.2-.3-.4-.3-.7s.1-.5.2-.7l9.8-8.4-8.3 9.8zm15.6-11.4c-1.2 1.2-3.2 1.2-4.5 0l-1.2-1.2c-1.2-1.2-1.2-3.2 0-4.5l3.5-3.5-.9 2.1c-.2.5-.1 1 .3 1.3.4.3.9.4 1.3.2l2.7-1.4-1.2 2.7c-.2.4-.2 1 .1 1.3.3.4.9.5 1.3.3l2.1-.9-3.5 3.6z" />
</svg>