<svg xmlns="http://www.w3.org/2000/svg" xml:space="preserve" viewBox="0 0 128 128" fill="currentColor">
    <path d="M20 48h8v-8h-8v8zm32-8h8v-8h-8v8zm16 0h8v-8h-8v8zm16 0h8v-8h-8v8zM52 24h8v-8h-8v8zm16 0h8v-8h-8v8zm16 0h8v-8h-8v8zM52 72h8v-8h-8v8zm16 0h8v-8h-8v8zm16 0h8v-8h-8v8zM52 88h8v-8h-8v8zm32 0h8v-8h-8v8zm-32 16h8v-8h-8v8zm32 0h8v-8h-8v8zm24-8h8v-8h-8v8zm0-24v8h8v-8h-8zm0 40h8v-8h-8v8zM52 56h8v-8h-8v8zm16 0h8v-8h-8v8zm16 0h8v-8h-8v8zm-64 8h8v-8h-8v8zm0 16h8v-8h-8v8zm0 16h8v-8h-8v8zm0 16h8v-8h-8v8zm48-24h8v-8h-8v8z" />
    <path fill-rule="evenodd" d="M124 120c0 4.422-3.578 8-8 8H12c-4.422 0-8-3.578-8-8V32c0-4.422 3.578-8 8-8h24V8c0-4.422 3.578-8 8-8h56c4.422 0 8 3.578 8 8v48h8c4.422 0 8 3.578 8 8v56zM36 32H12v88h24V32zm64-24H44v112h24V96h8v24h24V8zm16 56h-8v56h8V64z" clip-rule="evenodd" />
</svg>