<svg xmlns="http://www.w3.org/2000/svg" xml:space="preserve" viewBox="0 0 800 800">
    <g fill="currentColor">
        <path d="M709.349 561.744c-3.786-21.796-7.711-44.33-7.1-63.928.034-.82-.069-1.63-.174-2.433-1.553-29.974-10.222-114.894-57.774-114.894h-57.368c-26.679-71.95-54.281-127.226-57.019-132.641a15.63 15.63 0 0 0-13.954-8.591H283.695a15.628 15.628 0 0 0-13.954 8.591c-2.738 5.415-30.342 60.69-57.02 132.641H156.19c-47.88 0-56.584 85.066-58.154 114.955-.086.784-.184 1.57-.157 2.371.61 19.58-3.336 42.107-7.156 63.883-5.834 33.281-11.869 67.696-3.327 97.521 16.126 56.287 77.689 88.565 168.913 88.565 1.604 0 19.361.88 27.385.88H515.96c8.46 0 27.271-.88 29.075-.88 90.518 0 151.615-32.285 167.61-88.601 8.46-29.787 2.477-64.185-3.296-97.439zm-65.048-149.997c9.924 0 21.176 32.548 25.297 69.953h-50.379c-6.218-23.801-13.484-47.399-21.175-69.953h46.257zM457.09 550.625l-32.319-29.023 32.146-28.86c.356 21.837.427 41.425.173 57.883zm-3.357-165.355-28.963-25.999 26.737-24.01c.822 16.86 1.562 33.594 2.226 50.009zm-99.518-114.755h93.833c.478 8.165.949 16.37 1.395 24.604l-48.064 43.152-48.541-43.571c.452-8.085.906-16.152 1.377-24.185zm-3.445 64.329 27.21 24.427-29.469 26.461c.68-16.702 1.431-33.734 2.259-50.888zm-3.776 92.435c1.988-.652 3.898-1.683 5.565-3.174l48.819-43.833 48.823 43.833a15.41 15.41 0 0 0 5.066 3.035c.297 8.975.567 17.773.794 26.355-2.109.644-4.116 1.708-5.86 3.279l-48.823 43.823-48.819-43.823c-1.885-1.693-4.065-2.773-6.35-3.394.227-8.501.489-17.214.785-26.101zm-1.649 65.028 32.635 29.295-32.809 29.451c-.253-16.651-.184-36.543.174-58.746zm-189.154-80.56h45.42c-7.693 22.554-14.958 46.152-21.176 69.953h-49.903c4.152-37.405 15.551-69.953 25.659-69.953zm-38.74 238.875c-6.559-22.91-1.405-52.353 4.063-83.522 3.071-17.512 6.193-35.479 7.274-52.983h43.946c-15.218 71.018-18.21 140.256 9.104 184.622 2.154 3.506 4.562 6.731 7.03 9.871-38.311-10.249-63.447-30.14-71.417-57.988zm473.746 31.729c-14.521 23.59-39.133 35.059-75.237 35.059H283.695c-36.097 0-60.709-11.469-75.229-35.059-53.618-87.064 39.428-318.805 84.928-411.836h29.513c-19.274 329.28-3.087 345.659 2.267 351.005 3.052 3.053 7.047 4.579 11.05 4.579s7.997-1.526 11.05-4.579c5.477-5.469 6.035-13.989 1.692-20.094-.802-2.372-1.483-6.428-2.023-11.801 2.006-.653 3.933-1.683 5.608-3.19l48.829-43.834 48.823 43.834a15.55 15.55 0 0 0 5.137 3.06c-.55 5.443-1.23 9.541-2.051 11.932-4.342 6.104-3.767 14.625 1.701 20.094a15.587 15.587 0 0 0 11.05 4.579 15.58 15.58 0 0 0 11.05-4.579c5.354-5.346 21.551-21.725 2.268-351.005h26.914c45.497 93.012 138.571 324.71 84.925 411.835zm91.377-31.703c-7.989 28.161-33.363 48.202-72.051 58.328 2.573-3.244 5.05-6.602 7.289-10.238 27.317-44.366 24.326-113.604 9.107-184.622h44.421c1.065 17.504 4.169 35.461 7.202 52.975 5.427 31.179 10.538 60.63 4.032 83.557zM163.917 224.014h356.01c.008 0 .026.009.042.009.019 0 .036-.009.045-.009h117.885c29.452 0 53.413-23.957 53.413-53.401v-65.87c0-29.454-23.961-53.41-53.413-53.41H163.917c-29.443 0-53.409 23.957-53.409 53.41v65.87c0 29.444 23.966 53.401 53.409 53.401zM535.599 82.59H637.9c12.219 0 22.151 9.933 22.151 22.153v65.87c0 12.21-9.933 22.144-22.151 22.144H535.599V82.59zm-236.843 0h205.585v110.167H298.756V82.59zm-156.991 22.153c0-12.22 9.942-22.153 22.152-22.153H267.5v110.167H163.917c-12.21 0-22.152-9.934-22.152-22.144v-65.87z" />
        <path d="M352.453 639.468c-12.245 0-22.195 9.951-22.195 22.196 0 12.235 9.951 22.194 22.195 22.194 12.245 0 22.195-9.959 22.195-22.194 0-12.245-9.95-22.196-22.195-22.196z" />
    </g>
</svg>